<svg width="400" height="400" viewBox="0 0 400 400" fill="none" xmlns="http://www.w3.org/2000/svg">
  <rect width="400" height="400" fill="#F0FDF4"/>
  
  <!-- Cake Base -->
  <rect x="80" y="280" width="140" height="60" rx="15" fill="#DCFCE7" stroke="#22C55E" stroke-width="3"/>
  
  <!-- Cake Top -->
  <rect x="100" y="240" width="100" height="50" rx="12" fill="#F0FDF4" stroke="#22C55E" stroke-width="3"/>
  
  <!-- Cupcake 1 -->
  <circle cx="320" cy="320" r="35" fill="#FEF3C7" stroke="#F59E0B" stroke-width="2"/>
  <rect x="305" y="355" width="30" height="25" rx="15" fill="#FEF3C7" stroke="#F59E0B" stroke-width="2"/>
  <circle cx="320" cy="310" r="8" fill="#EF4444"/>
  
  <!-- Cupcake 2 -->
  <circle cx="280" cy="280" r="30" fill="#FCE7F3" stroke="#F472B6" stroke-width="2"/>
  <rect x="270" y="310" width="20" height="20" rx="10" fill="#FCE7F3" stroke="#F472B6" stroke-width="2"/>
  <circle cx="280" cy="275" r="6" fill="#8B5CF6"/>
  
  <!-- Cupcake 3 -->
  <circle cx="340" cy="250" r="25" fill="#DBEAFE" stroke="#3B82F6" stroke-width="2"/>
  <rect x="332" y="275" width="16" height="18" rx="8" fill="#DBEAFE" stroke="#3B82F6" stroke-width="2"/>
  <circle cx="340" cy="245" r="5" fill="#10B981"/>
  
  <!-- Candle on Cake -->
  <rect x="145" y="200" width="10" height="40" rx="5" fill="#F59E0B"/>
  <circle cx="150" cy="195" r="8" fill="#EF4444"/>
  
  <!-- Sprinkles -->
  <circle cx="120" cy="260" r="3" fill="#8B5CF6"/>
  <circle cx="200" cy="270" r="3" fill="#10B981"/>
  <circle cx="150" cy="300" r="3" fill="#F59E0B"/>
  <circle cx="250" cy="320" r="3" fill="#EF4444"/>
  <circle cx="300" cy="340" r="3" fill="#8B5CF6"/>
  <circle cx="330" cy="290" r="3" fill="#10B981"/>
  
  <!-- Decorative Elements -->
  <circle cx="90" cy="290" r="6" fill="#22C55E"/>
  <circle cx="210" cy="300" r="6" fill="#22C55E"/>
  <circle cx="100" cy="320" r="4" fill="#22C55E"/>
  <circle cx="190" cy="325" r="4" fill="#22C55E"/>
  
  <!-- Text -->
  <text x="200" y="380" text-anchor="middle" font-family="Arial, sans-serif" font-size="14" fill="#9CA3AF">Cake + Cupcakes</text>
</svg> 