<svg width="400" height="400" viewBox="0 0 400 400" fill="none" xmlns="http://www.w3.org/2000/svg">
  <rect width="400" height="400" fill="#FEF3C7"/>
  
  <!-- Cupcake 1 (Top Left) -->
  <circle cx="120" cy="120" r="40" fill="#FEF3C7" stroke="#F59E0B" stroke-width="3"/>
  <rect x="105" y="160" width="30" height="25" rx="15" fill="#FEF3C7" stroke="#F59E0B" stroke-width="3"/>
  <circle cx="120" cy="110" r="8" fill="#EF4444"/>
  <circle cx="110" cy="130" r="3" fill="#8B5CF6"/>
  <circle cx="130" cy="125" r="3" fill="#10B981"/>
  
  <!-- Cupcake 2 (Top Right) -->
  <circle cx="280" cy="100" r="35" fill="#FCE7F3" stroke="#F472B6" stroke-width="3"/>
  <rect x="267" y="135" width="26" height="22" rx="13" fill="#FCE7F3" stroke="#F472B6" stroke-width="3"/>
  <circle cx="280" cy="90" r="7" fill="#8B5CF6"/>
  <circle cx="270" cy="110" r="3" fill="#F59E0B"/>
  <circle cx="290" cy="105" r="3" fill="#EF4444"/>
  
  <!-- Cupcake 3 (Middle Left) -->
  <circle cx="100" cy="220" r="30" fill="#DBEAFE" stroke="#3B82F6" stroke-width="3"/>
  <rect x="90" y="250" width="20" height="20" rx="10" fill="#DBEAFE" stroke="#3B82F6" stroke-width="3"/>
  <circle cx="100" cy="210" r="6" fill="#10B981"/>
  <circle cx="90" cy="225" r="3" fill="#F59E0B"/>
  <circle cx="110" cy="220" r="3" fill="#8B5CF6"/>
  
  <!-- Cupcake 4 (Middle Right) -->
  <circle cx="300" cy="200" r="32" fill="#DCFCE7" stroke="#22C55E" stroke-width="3"/>
  <rect x="288" y="232" width="24" height="21" rx="12" fill="#DCFCE7" stroke="#22C55E" stroke-width="3"/>
  <circle cx="300" cy="190" r="7" fill="#F59E0B"/>
  <circle cx="290" cy="210" r="3" fill="#EF4444"/>
  <circle cx="310" cy="205" r="3" fill="#8B5CF6"/>
  
  <!-- Cupcake 5 (Bottom Left) -->
  <circle cx="140" cy="300" r="28" fill="#FEF3C7" stroke="#F59E0B" stroke-width="3"/>
  <rect x="130" y="328" width="16" height="18" rx="9" fill="#FEF3C7" stroke="#F59E0B" stroke-width="3"/>
  <circle cx="140" cy="290" r="6" fill="#EF4444"/>
  <circle cx="135" cy="305" r="3" fill="#8B5CF6"/>
  <circle cx="145" cy="300" r="3" fill="#10B981"/>
  
  <!-- Cupcake 6 (Bottom Right) -->
  <circle cx="260" cy="280" r="25" fill="#FCE7F3" stroke="#F472B6" stroke-width="3"/>
  <rect x="252" y="305" width="16" height="16" rx="8" fill="#FCE7F3" stroke="#F472B6" stroke-width="3"/>
  <circle cx="260" cy="270" r="5" fill="#8B5CF6"/>
  <circle cx="255" cy="285" r="3" fill="#F59E0B"/>
  <circle cx="265" cy="280" r="3" fill="#EF4444"/>
  
  <!-- Sprinkles scattered around -->
  <circle cx="80" cy="80" r="2" fill="#8B5CF6"/>
  <circle cx="320" cy="60" r="2" fill="#10B981"/>
  <circle cx="60" cy="180" r="2" fill="#F59E0B"/>
  <circle cx="340" cy="160" r="2" fill="#EF4444"/>
  <circle cx="120" cy="350" r="2" fill="#8B5CF6"/>
  <circle cx="280" cy="340" r="2" fill="#10B981"/>
  
  <!-- Text -->
  <text x="200" y="380" text-anchor="middle" font-family="Arial, sans-serif" font-size="16" fill="#9CA3AF">Cupcakes</text>
</svg> 